<mxfile host="app.diagrams.net" modified="2024-04-23T04:07:10.788Z" agent="Mozilla/5.0 (X11; Linux x86_64) AppleWebKit/537.36 (KHTML, like Gecko) Chrome/123.0.0.0 Safari/537.36" version="24.2.8" etag="6OvP4JiJF9Z2bp3fxO_A" type="github">
  <diagram name="Page-1" id="cgFGnpT8RXrNZF5JN4Lv">
    <mxGraphModel>
      <root>
        <mxCell id="0" />
        <mxCell id="1" parent="0" />
      </root>
    </mxGraphModel>
  </diagram>
</mxfile>
